<?xml version="1.0" encoding="utf-8"?>
<!-- Generator: Adobe Illustrator 26.0.2, SVG Export Plug-In . SVG Version: 6.00 Build 0)  -->
<svg version="1.1" id="Layer_1" xmlns="http://www.w3.org/2000/svg" xmlns:xlink="http://www.w3.org/1999/xlink" x="0px" y="0px"
	 viewBox="0 0 1000 300" style="enable-background:new 0 0 1000 300;" xml:space="preserve">
<style type="text/css">
	.st0{fill:#004952;}
</style>
<g>
	<g>
		<path class="st0" d="M283.7,125.1c0.2-1.2,0.6-1.8,1.2-1.8c0.5,0,1,0.3,1.8,2.1l18.6,37.8l18.5-38.3c0.5-1.1,0.9-1.6,1.5-1.6
			s1,0.7,1.2,2.1l6.2,41.6c0.6,4.3,1.3,6.3,3.3,6.9c2,0.6,3.3,0.7,4.2,0.7c0.6,0,1.1,0.1,1.1,0.5c0,0.5-0.8,0.7-1.8,0.7
			c-1.7,0-11.1-0.1-13.8-0.3c-1.6-0.1-2-0.3-2-0.7c0-0.3,0.3-0.5,0.7-0.7c0.4-0.1,0.6-1,0.3-2.9l-4.1-29.6h-0.3l-14.8,30.3
			c-1.6,3.2-1.9,3.8-2.5,3.8s-1.3-1.4-2.4-3.4c-1.6-3.1-7-13.5-7.8-15.4c-0.6-1.4-4.7-9.4-7.1-14.5h-0.3l-3.5,26.5
			c-0.1,1.2-0.2,2.1-0.2,3.2c0,1.3,0.9,1.9,2,2.2c1.2,0.3,2.2,0.3,2.9,0.3c0.5,0,1,0.1,1,0.5c0,0.6-0.6,0.7-1.6,0.7
			c-2.9,0-5.9-0.2-7.1-0.2c-1.3,0-4.6,0.2-6.7,0.2c-0.7,0-1.2-0.1-1.2-0.7c0-0.3,0.4-0.5,1.1-0.5c0.5,0,1,0,2-0.2
			c1.9-0.4,2.4-3.1,2.8-5.4L283.7,125.1z"/>
		<path class="st0" d="M352.1,144c0-10.3,0-12.2-0.1-14.4c-0.1-2.3-0.8-3.5-2.3-3.8c-0.7-0.2-1.6-0.3-2.4-0.3
			c-0.7,0-1.1-0.1-1.1-0.7c0-0.4,0.5-0.5,1.6-0.5c2.6,0,6.9,0.2,8.8,0.2c1.7,0,5.7-0.2,8.3-0.2c0.9,0,1.4,0.1,1.4,0.5
			c0,0.5-0.4,0.7-1.1,0.7s-1.2,0.1-2,0.2c-1.8,0.3-2.4,1.5-2.5,3.9c-0.1,2.2-0.1,4.1-0.1,14.4v12c0,6.6,0,12,0.3,14.9
			c0.2,1.8,0.7,3.1,2.7,3.3c1,0.1,2.4,0.3,3.5,0.3c0.7,0,1.1,0.2,1.1,0.5c0,0.5-0.5,0.7-1.3,0.7c-4.5,0-8.8-0.2-10.6-0.2
			c-1.6,0-5.8,0.2-8.6,0.2c-0.9,0-1.4-0.2-1.4-0.7c0-0.3,0.3-0.5,1.1-0.5c1,0,1.8-0.1,2.4-0.3c1.4-0.3,1.8-1.4,2-3.4
			c0.3-2.9,0.3-8.2,0.3-14.8L352.1,144L352.1,144z"/>
		<path class="st0" d="M382.8,144c0-10.3,0-12.2-0.1-14.4c-0.1-2.3-0.7-3.4-2.9-3.9c-0.5-0.1-1.7-0.2-2.7-0.2
			c-0.7,0-1.2-0.1-1.2-0.6s0.5-0.6,1.5-0.6c3.6,0,7.9,0.2,9.3,0.2c2.3,0,7.5-0.2,9.6-0.2c4.3,0,8.8,0.4,12.5,2.9
			c1.9,1.3,4.6,4.8,4.6,9.3c0,5-2.1,9.7-9,15.2c6,7.6,10.7,13.7,14.8,17.9c3.8,3.9,6.6,4.4,7.6,4.6c0.7,0.1,1.4,0.2,1.9,0.2
			s0.8,0.2,0.8,0.5c0,0.5-0.5,0.7-1.3,0.7h-6.5c-3.8,0-5.5-0.3-7.3-1.3c-2.9-1.6-5.5-4.8-9.3-10c-2.7-3.7-5.8-8.4-6.7-9.4
			c-0.3-0.4-0.7-0.5-1.2-0.5l-5.9-0.1c-0.3,0-0.5,0.1-0.5,0.5v1c0,6.3,0,11.7,0.3,14.5c0.2,2,0.6,3.5,2.7,3.7c1,0.1,2.5,0.3,3.3,0.3
			c0.5,0,0.8,0.2,0.8,0.5c0,0.5-0.5,0.7-1.4,0.7c-3.9,0-9-0.2-10-0.2c-1.3,0-5.6,0.2-8.3,0.2c-0.9,0-1.4-0.2-1.4-0.7
			c0-0.3,0.3-0.5,1.1-0.5c1,0,1.8-0.1,2.4-0.3c1.4-0.3,1.7-1.8,2-3.7c0.3-2.9,0.3-8.2,0.3-14.5V144H382.8z M390.9,149.4
			c0,0.7,0.1,1,0.6,1.2c1.4,0.5,3.5,0.7,5.2,0.7c2.7,0,3.6-0.3,4.8-1.2c2-1.5,4-4.6,4-10.2c0-9.7-6.4-12.4-10.4-12.4
			c-1.7,0-2.9,0.1-3.6,0.3c-0.5,0.1-0.6,0.4-0.6,1V149.4z"/>
		<path class="st0" d="M436.9,158.4c-0.3,0-0.5,0.1-0.6,0.5l-3.7,9.3c-0.7,1.7-1,3.3-1,4.1c0,1.2,0.6,2.1,2.7,2.1h1
			c0.8,0,1,0.1,1,0.5c0,0.5-0.4,0.7-1.2,0.7c-2.2,0-5.1-0.2-7.2-0.2c-0.7,0-4.5,0.2-8,0.2c-0.9,0-1.3-0.1-1.3-0.7
			c0-0.4,0.3-0.5,0.8-0.5c0.6,0,1.6-0.1,2.1-0.1c3.1-0.4,4.4-2.7,5.8-6.1l17.1-42.1c0.8-2,1.2-2.7,1.9-2.7c0.6,0,1,0.6,1.7,2.2
			c1.6,3.7,12.5,30.9,16.9,41.3c2.6,6.1,4.6,7.1,6,7.4c1,0.2,2,0.3,2.9,0.3c0.5,0,0.9,0.1,0.9,0.5c0,0.5-0.6,0.7-3.1,0.7
			c-2.4,0-7.4,0-12.8-0.1c-1.2-0.1-2-0.1-2-0.5s0.3-0.5,1-0.6c0.5-0.1,1-0.7,0.6-1.6l-5.4-14c-0.1-0.3-0.3-0.5-0.7-0.5h-15.4V158.4z
			 M450.7,155c0.3,0,0.4-0.2,0.3-0.4l-6.1-16.7c-0.1-0.3-0.1-0.6-0.3-0.6s-0.3,0.3-0.4,0.6l-6.3,16.7c-0.1,0.3,0,0.5,0.3,0.5
			L450.7,155L450.7,155z"/>
		<path class="st0" d="M523,171.1c0,1.8-0.1,2-0.9,2.4c-4.4,2.3-11.1,3.1-16.4,3.1c-16.7,0-31.4-7.9-31.4-26.6
			c0-10.9,5.6-18.5,11.8-22.2c6.5-3.9,12.6-4.4,18.3-4.4c4.7,0,10.7,0.8,12,1.1c1.4,0.3,3.8,0.7,5.4,0.7c0.8,0.1,1,0.3,1,0.8
			c0,0.7-0.5,2.7-0.5,11.1c0,1.1-0.2,1.4-0.7,1.4s-0.6-0.3-0.7-0.9c-0.2-1.6-0.5-3.7-2.3-5.6c-2-2.2-7.5-5.3-15.2-5.3
			c-3.7,0-8.7,0.3-13.5,4.2c-3.8,3.2-6.3,8.3-6.3,16.7c0,14.6,9.3,25.6,23.7,25.6c1.8,0,4.1,0,5.8-0.7c1-0.5,1.3-1.4,1.3-2.5v-6.4
			c0-3.4,0-6-0.1-8c-0.1-2.3-0.7-3.4-2.9-3.9c-0.5-0.1-1.7-0.2-2.7-0.2c-0.6,0-1-0.1-1-0.5c0-0.5,0.5-0.7,1.4-0.7
			c3.5,0,7.8,0.2,9.9,0.2c2.1,0,5.7-0.2,8-0.2c0.9,0,1.4,0.1,1.4,0.7c0,0.4-0.4,0.5-0.9,0.5s-1,0.1-1.8,0.2
			c-1.8,0.3-2.5,1.5-2.6,3.9c-0.1,2-0.1,4.8-0.1,8.2V171.1z"/>
		<path class="st0" d="M542,144c0-10.3,0-12.2-0.1-14.4c-0.1-2.3-0.7-3.4-2.9-3.9c-0.5-0.1-1.7-0.2-2.7-0.2c-0.7,0-1.2-0.1-1.2-0.6
			s0.5-0.6,1.5-0.6c1.8,0,3.8,0.1,5.5,0.1c1.8,0.1,3.3,0.1,4.3,0.1c2.2,0,15.7,0,17-0.1s2.4-0.3,2.9-0.4c0.3-0.1,0.7-0.3,1.1-0.3
			s0.4,0.3,0.4,0.6c0,0.5-0.3,1.3-0.5,4.4c-0.1,0.7-0.2,3.7-0.3,4.5c-0.1,0.3-0.2,0.7-0.7,0.7s-0.6-0.3-0.6-1c0-0.5-0.1-1.6-0.4-2.4
			c-0.5-1.2-1.2-2-4.6-2.4c-1.2-0.1-8.3-0.3-9.7-0.3c-0.3,0-0.5,0.2-0.5,0.7v17.2c0,0.5,0.1,0.7,0.5,0.7c1.5,0,9.3,0,10.9-0.1
			c1.6-0.1,2.7-0.3,3.3-1c0.5-0.5,0.7-0.9,1.1-0.9c0.3,0,0.5,0.1,0.5,0.5s-0.3,1.5-0.5,5c-0.1,1.4-0.3,4.1-0.3,4.6s0,1.3-0.6,1.3
			c-0.5,0-0.6-0.3-0.6-0.6c-0.1-0.7-0.1-1.6-0.3-2.4c-0.3-1.4-1.3-2.4-3.8-2.7c-1.3-0.1-8-0.2-9.7-0.2c-0.3,0-0.4,0.3-0.4,0.7v5.4
			c0,2.3-0.1,8.6,0,10.5c0.1,4.7,1.2,5.7,8.2,5.7c1.8,0,4.6,0,6.4-0.8c1.8-0.8,2.6-2.2,3.1-5c0.1-0.7,0.3-1,0.7-1
			c0.5,0,0.5,0.5,0.5,1.2c0,1.6-0.5,6.2-0.9,7.5c-0.5,1.8-1.1,1.8-3.7,1.8c-5.1,0-8.8-0.1-11.8-0.2c-2.9-0.1-5-0.2-7.1-0.2
			c-0.7,0-2.2,0-3.9,0.1c-1.6,0-3.3,0.1-4.7,0.1c-0.9,0-1.4-0.2-1.4-0.7c0-0.3,0.3-0.5,1.1-0.5c1,0,1.8-0.1,2.4-0.3
			c1.4-0.3,1.7-1.8,2-3.7c0.3-2.9,0.3-8.2,0.3-14.5v-12H542z"/>
		<path class="st0" d="M646.6,171.1c0,1.8-0.1,2-0.9,2.4c-4.4,2.3-11.1,3.1-16.4,3.1c-16.7,0-31.4-7.9-31.4-26.6
			c0-10.9,5.6-18.5,11.8-22.2c6.5-3.9,12.6-4.4,18.3-4.4c4.7,0,10.7,0.8,12,1.1c1.4,0.3,3.8,0.7,5.4,0.7c0.8,0.1,1,0.3,1,0.8
			c0,0.7-0.5,2.7-0.5,11.1c0,1.1-0.2,1.4-0.7,1.4s-0.6-0.3-0.7-0.9c-0.2-1.6-0.5-3.7-2.3-5.6c-2-2.2-7.5-5.3-15.2-5.3
			c-3.7,0-8.7,0.3-13.5,4.2c-3.8,3.2-6.3,8.3-6.3,16.7c0,14.6,9.3,25.6,23.7,25.6c1.8,0,4.1,0,5.8-0.7c1-0.5,1.3-1.4,1.3-2.5v-6.4
			c0-3.4,0-6-0.1-8c-0.1-2.3-0.7-3.4-2.9-3.9c-0.5-0.1-1.7-0.2-2.7-0.2c-0.6,0-1-0.1-1-0.5c0-0.5,0.5-0.7,1.4-0.7
			c3.5,0,7.8,0.2,9.9,0.2c2.1,0,5.7-0.2,8-0.2c0.9,0,1.4,0.1,1.4,0.7c0,0.4-0.4,0.5-0.9,0.5s-1,0.1-1.8,0.2
			c-1.8,0.3-2.5,1.5-2.6,3.9c-0.1,2-0.1,4.8-0.1,8.2V171.1z"/>
		<path class="st0" d="M668.3,158.4c-0.3,0-0.5,0.1-0.6,0.5l-3.7,9.3c-0.7,1.7-1,3.3-1,4.1c0,1.2,0.6,2.1,2.7,2.1h1
			c0.8,0,1,0.1,1,0.5c0,0.5-0.4,0.7-1.2,0.7c-2.2,0-5.1-0.2-7.2-0.2c-0.7,0-4.5,0.2-8,0.2c-0.9,0-1.3-0.1-1.3-0.7
			c0-0.4,0.3-0.5,0.8-0.5c0.6,0,1.6-0.1,2.1-0.1c3.1-0.4,4.4-2.7,5.8-6.1l17.1-42.1c0.8-2,1.2-2.7,1.9-2.7c0.6,0,1,0.6,1.7,2.2
			c1.6,3.7,12.5,30.9,16.9,41.3c2.6,6.1,4.6,7.1,6,7.4c1,0.2,2,0.3,2.9,0.3c0.5,0,0.9,0.1,0.9,0.5c0,0.5-0.6,0.7-3.1,0.7
			c-2.4,0-7.4,0-12.8-0.1c-1.2-0.1-2-0.1-2-0.5s0.3-0.5,1-0.6c0.5-0.1,1-0.7,0.6-1.6l-5.4-14c-0.1-0.3-0.3-0.5-0.7-0.5h-15.4V158.4z
			 M682.1,155c0.3,0,0.4-0.2,0.3-0.4l-6.1-16.7c-0.1-0.3-0.1-0.6-0.3-0.6s-0.3,0.3-0.4,0.6l-6.3,16.7c-0.1,0.3,0,0.5,0.3,0.5
			L682.1,155L682.1,155z"/>
		<path class="st0" d="M721.6,156c0,8.7,0,13.4,1.4,14.6c1.2,1,2.9,1.5,8.2,1.5c3.6,0,6.3-0.1,8-1.9c0.8-0.9,1.6-2.8,1.8-4.1
			c0.1-0.6,0.2-1,0.7-1s0.5,0.3,0.5,1.2c0,0.7-0.5,5.8-1,7.8c-0.4,1.5-0.7,1.8-4.3,1.8c-4.9,0-8.4-0.1-11.5-0.2
			c-3.1-0.1-5.5-0.2-8.3-0.2c-0.7,0-2.2,0-3.9,0.1c-1.6,0-3.3,0.1-4.7,0.1c-0.9,0-1.4-0.2-1.4-0.7c0-0.3,0.3-0.5,1.1-0.5
			c1,0,1.8-0.1,2.4-0.3c1.4-0.3,1.7-1.8,2-3.7c0.3-2.9,0.3-8.2,0.3-14.5v-12c0-10.3,0-12.2-0.1-14.4c-0.1-2.3-0.7-3.4-2.9-3.9
			c-0.5-0.1-1.4-0.2-2.2-0.2c-0.7,0-1.2-0.1-1.2-0.6s0.5-0.6,1.5-0.6c3.2,0,7.5,0.2,9.3,0.2c1.6,0,6.6-0.2,9.2-0.2
			c1,0,1.4,0.1,1.4,0.6s-0.4,0.6-1.2,0.6c-0.7,0-1.8,0.1-2.7,0.2c-1.8,0.3-2.4,1.5-2.5,3.9c-0.1,2.2-0.1,4.1-0.1,14.4v12H721.6z"/>
		<path class="st0" d="M762.7,156c0,8.7,0,13.4,1.4,14.6c1.2,1,2.9,1.5,8.2,1.5c3.6,0,6.3-0.1,8-1.9c0.8-0.9,1.6-2.8,1.8-4.1
			c0.1-0.6,0.2-1,0.7-1s0.5,0.3,0.5,1.2c0,0.7-0.5,5.8-1,7.8c-0.4,1.5-0.7,1.8-4.3,1.8c-4.9,0-8.4-0.1-11.5-0.2
			c-3.1-0.1-5.5-0.2-8.3-0.2c-0.7,0-2.2,0-3.9,0.1c-1.6,0-3.3,0.1-4.7,0.1c-0.9,0-1.4-0.2-1.4-0.7c0-0.3,0.3-0.5,1.1-0.5
			c1,0,1.8-0.1,2.4-0.3c1.4-0.3,1.7-1.8,2-3.7c0.3-2.9,0.3-8.2,0.3-14.5v-12c0-10.3,0-12.2-0.1-14.4c-0.1-2.3-0.7-3.4-2.9-3.9
			c-0.5-0.1-1.4-0.2-2.2-0.2c-0.7,0-1.2-0.1-1.2-0.6s0.5-0.6,1.5-0.6c3.2,0,7.5,0.2,9.3,0.2c1.6,0,6.6-0.2,9.2-0.2
			c1,0,1.4,0.1,1.4,0.6s-0.4,0.6-1.2,0.6c-0.7,0-1.8,0.1-2.7,0.2c-1.8,0.3-2.4,1.5-2.5,3.9c-0.1,2.2-0.1,4.1-0.1,14.4v12H762.7z"/>
		<path class="st0" d="M795.4,144c0-10.3,0-12.2-0.1-14.4c-0.1-2.3-0.7-3.4-2.9-3.9c-0.5-0.1-1.7-0.2-2.7-0.2
			c-0.7,0-1.2-0.1-1.2-0.6s0.5-0.6,1.5-0.6c1.8,0,3.8,0.1,5.5,0.1c1.8,0.1,3.3,0.1,4.3,0.1c2.2,0,15.7,0,17-0.1s2.4-0.3,2.9-0.4
			c0.3-0.1,0.7-0.3,1.1-0.3s0.4,0.3,0.4,0.6c0,0.5-0.3,1.3-0.5,4.4c-0.1,0.7-0.2,3.7-0.3,4.5c-0.1,0.3-0.2,0.7-0.7,0.7
			s-0.6-0.3-0.6-1c0-0.5-0.1-1.6-0.4-2.4c-0.5-1.2-1.2-2-4.6-2.4c-1.2-0.1-8.3-0.3-9.7-0.3c-0.3,0-0.5,0.2-0.5,0.7v17.2
			c0,0.5,0.1,0.7,0.5,0.7c1.5,0,9.3,0,10.9-0.1c1.6-0.1,2.7-0.3,3.3-1c0.5-0.5,0.7-0.9,1.1-0.9c0.3,0,0.5,0.1,0.5,0.5
			s-0.3,1.5-0.5,5c-0.1,1.4-0.3,4.1-0.3,4.6s0,1.3-0.6,1.3c-0.5,0-0.6-0.3-0.6-0.6c-0.1-0.7-0.1-1.6-0.3-2.4
			c-0.3-1.4-1.3-2.4-3.8-2.7c-1.3-0.1-8-0.2-9.7-0.2c-0.3,0-0.4,0.3-0.4,0.7v5.4c0,2.3-0.1,8.6,0,10.5c0.1,4.7,1.2,5.7,8.2,5.7
			c1.8,0,4.6,0,6.4-0.8c1.8-0.8,2.6-2.2,3.1-5c0.1-0.7,0.3-1,0.7-1c0.5,0,0.5,0.5,0.5,1.2c0,1.6-0.5,6.2-0.9,7.5
			c-0.5,1.8-1.1,1.8-3.7,1.8c-5.1,0-8.8-0.1-11.8-0.2c-2.9-0.1-5-0.2-7.1-0.2c-0.7,0-2.2,0-3.9,0.1c-1.6,0-3.3,0.1-4.7,0.1
			c-0.9,0-1.4-0.2-1.4-0.7c0-0.3,0.3-0.5,1.1-0.5c1,0,1.8-0.1,2.4-0.3c1.4-0.3,1.7-1.8,2-3.7c0.3-2.9,0.3-8.2,0.3-14.5v-12H795.4z"
			/>
		<path class="st0" d="M838.3,144c0-10.3,0-12.2-0.1-14.4c-0.1-2.3-0.7-3.4-2.9-3.9c-0.5-0.1-1.7-0.2-2.7-0.2
			c-0.7,0-1.2-0.1-1.2-0.6s0.5-0.6,1.5-0.6c3.6,0,7.9,0.2,9.3,0.2c2.3,0,7.5-0.2,9.6-0.2c4.3,0,8.8,0.4,12.5,2.9
			c1.9,1.3,4.6,4.8,4.6,9.3c0,5-2.1,9.7-9,15.2c6.1,7.6,10.7,13.7,14.8,17.9c3.8,3.9,6.6,4.4,7.6,4.6c0.7,0.1,1.4,0.2,1.9,0.2
			s0.8,0.2,0.8,0.5c0,0.5-0.5,0.7-1.3,0.7h-6.5c-3.8,0-5.5-0.3-7.3-1.3c-2.9-1.6-5.5-4.8-9.3-10c-2.7-3.7-5.8-8.4-6.7-9.4
			c-0.3-0.4-0.7-0.5-1.2-0.5l-5.9-0.1c-0.3,0-0.5,0.1-0.5,0.5v1c0,6.3,0,11.7,0.3,14.5c0.2,2,0.6,3.5,2.7,3.7c1,0.1,2.5,0.3,3.3,0.3
			c0.5,0,0.8,0.2,0.8,0.5c0,0.5-0.5,0.7-1.4,0.7c-3.9,0-9-0.2-10-0.2c-1.3,0-5.6,0.2-8.3,0.2c-0.9,0-1.4-0.2-1.4-0.7
			c0-0.3,0.3-0.5,1.1-0.5c1,0,1.8-0.1,2.4-0.3c1.4-0.3,1.7-1.8,2-3.7c0.3-2.9,0.3-8.2,0.3-14.5V144H838.3z M846.4,149.4
			c0,0.7,0.1,1,0.6,1.2c1.4,0.5,3.5,0.7,5.2,0.7c2.7,0,3.6-0.3,4.8-1.2c2-1.5,4-4.6,4-10.2c0-9.7-6.4-12.4-10.4-12.4
			c-1.7,0-2.9,0.1-3.6,0.3c-0.5,0.1-0.6,0.4-0.6,1V149.4z"/>
		<path class="st0" d="M895.9,158.1c0-3.7-0.7-5.2-1.6-7.1c-0.5-1.1-9.6-16-12-19.6c-1.7-2.5-3.4-4.2-4.7-5c-0.9-0.5-2-0.9-2.9-0.9
			c-0.5,0-1-0.1-1-0.6c0-0.4,0.5-0.6,1.3-0.6c1.2,0,6.3,0.2,8.6,0.2c1.4,0,4.2-0.2,7.3-0.2c0.7,0,1,0.2,1,0.6c0,0.4-0.5,0.5-1.5,0.7
			c-0.6,0.1-1,0.7-1,1.2s0.3,1.4,0.8,2.3c1,2,10.5,18.4,11.6,20.3c0.7-1.6,9.2-16.6,10.2-18.7c0.7-1.5,1-2.7,1-3.5
			c0-0.7-0.3-1.4-1.4-1.7c-0.6-0.1-1.2-0.3-1.2-0.7c0-0.5,0.3-0.6,1.2-0.6c2.2,0,4.4,0.2,6.4,0.2c1.5,0,6-0.2,7.3-0.2
			c0.7,0,1.2,0.1,1.2,0.5c0,0.5-0.5,0.7-1.3,0.7c-0.7,0-2,0.3-3,0.8c-1.4,0.7-2.2,1.5-3.7,3.3c-2.2,2.7-11.8,18.7-13,21.6
			c-1,2.4-1,4.6-1,6.8v5.6c0,1.1,0,3.9,0.2,6.8c0.1,2,0.7,3.5,2.8,3.7c1,0.1,2.4,0.3,3.4,0.3c0.7,0,1.1,0.2,1.1,0.5
			c0,0.5-0.5,0.7-1.4,0.7c-4.3,0-8.6-0.2-10.4-0.2c-1.7,0-6,0.2-8.5,0.2c-1,0-1.5-0.1-1.5-0.7c0-0.3,0.3-0.5,1.1-0.5
			c1,0,1.8-0.1,2.4-0.3c1.4-0.3,2-1.8,2.1-3.7c0.2-2.9,0.2-5.7,0.2-6.8L895.9,158.1L895.9,158.1z"/>
	</g>
	<g>
		<rect x="248.9" y="66.6" class="st0" width="6" height="166.8"/>
	</g>
	<g>
		<g>
			<path class="st0" d="M192.4,170c0,0.9-1.3,1.3-3,1.3c-2.9,0-19.2-0.4-23.8-0.7c-2.7-0.1-3.4-0.6-3.4-1.3c0-0.5,0.5-0.9,1.3-1.2
				c0.6-0.3,0.9-1.6,0.5-4.7l-1.3-10L162,148l-0.6-4.4l-0.7-5.1l-0.4-3.1l-0.4-3.1l-2.2-16.8h-0.4l-24.7,49.1
				c-2.6,5.2-3.3,6.3-4.6,6.3c-1.4,0-2.7-2.2-4.6-5.6c-2.7-5.1-11.9-22.1-13.2-25.2c-0.9-2.1-7.7-15.5-11.5-23.2h-0.4l-5.5,42.8
				c-0.3,2-0.4,3.4-0.4,5.2c0,2.1,1.6,2.9,3.5,3.3c2,0.4,3,0.5,4,0.5s1.8,0.5,1.8,1c0,1-1,1.3-2.7,1.3c-4.8,0-10.1-0.4-12.1-0.4
				c-2.2,0-7.7,0.4-11.4,0.4c-1.2,0-2.1-0.3-2.1-1.3c0-0.5,0.7-1,1.8-1c0.9,0,1.7,0,3.5-0.3c3.1-0.4,4.2-4.8,4.7-8.5l11.4-72
				c0.3-1.8,1.3-2.9,2.2-2.9c1.2,0,2,0.5,3.5,3.5l30.8,61.4l30.8-62.2c0.9-1.8,2-2.7,3-2.7c0.9,0,2.2,1.2,2.6,3.5l5.8,38.1l0.4,2.8
				l0.4,2.8l0.1,0.9l0.4,2.9l0.4,2.9l2.7,17.8c1,6.9,2.1,9.9,5.6,11c3.3,0.9,5.1,1,6.5,1C191.6,169,192.4,169.4,192.4,170z"/>
		</g>
		<g>
			<path class="st0" d="M232.6,172.8c0,0.7-0.7,1.2-1.4,1.2c-0.9,0-1.8,0.1-3.1,0.4c-3.1,0.5-4.3,2.1-4.4,6
				c-0.1,3.4-0.1,7.8-0.1,13.3V206c0,3,0,3.1-1.4,3.9c-7.7,3.8-19.1,5-28.1,5c-28.2,0-53.2-12.8-53.2-43.5
				c0-15.9,7.6-27.5,16.8-34.2l0.4,3.2l0.9,7.1l0.8,5.7c-1.3,3.9-2,8.6-2,14.2c0,23.9,15.4,41.3,40,41.3c3,0,5.4,0,8.1-1.2
				c1.7-0.8,2.2-2,2.2-3.9v-10.2c0-5.5,0-9.7-0.1-13.1c-0.1-3.8-1.3-5-5-6c-0.9-0.3-2.9-0.4-4.4-0.4c-1,0-1.8-0.5-1.8-1.2
				c0-0.9,0.9-1,2.5-1c6,0,14.2,0.3,17.6,0.3c3.7,0,9.7-0.3,13.5-0.3C231.9,171.7,232.6,171.9,232.6,172.8z"/>
			<path class="st0" d="M223,132.2c0,1.3-0.8,4.3-0.8,18.3c0,1.7-0.7,2.5-1.6,2.5c-0.8,0-1-0.5-1.2-1.4c-0.3-2.5-0.9-6-3.9-9.1
				c-3.4-3.5-12-8.5-24.9-8.5c-3.7,0-8,0-12.6,1.4l-0.4-2.8l-0.1-0.6l-0.5-3c5.1-1,10.1-1.2,14.8-1.2c8,0,18,1.3,20.4,1.8
				c2.4,0.4,6.4,1,9.1,1.2C222.7,131,223,131.4,223,132.2z"/>
		</g>
	</g>
</g>
</svg>
